M48
;Layer_Color=6321
;FILE_FORMAT=2:4
INCH,LZ
;TYPE=PLATED
T1F00S00C0.0236
T2F00S00C0.0315
T3F00S00C0.0360
T4F00S00C0.0380
T5F00S00C0.0400
T6F00S00C0.0598
T7F00S00C0.1575
;TYPE=NON_PLATED
T8F00S00C0.0787
T9F00S00C0.1571
%
T01
X011858Y0274
X012842
Y03955
X011858
T02
X034511Y02175
X035889
X025628Y02175
X02425
X026099Y0449
X027477
X01725
X015872
T03
X0315Y025056
X0325
X0335
X0345
Y030056
X0335
X0325
X0315
X03845Y023507
Y022507
X0305Y025056
X0295
X0285
X0275
X02415
X02315
X02215
X02115
X02015
X01915
X01815
X01715
Y030056
X01815
X01915
X02015
X02115
X02215
X02315
X02415
X0275
X0285
X0295
X0305
X0108Y04165
Y04265
X01715Y041844
X01815
X01915
X02015
X02115
X02215
X02315
X02415
X0275
X0285
X0295
X0305
Y036844
X0295
X0285
X0275
X02415
X02315
X02215
X02115
X02015
X01915
X01815
X01715
X0315
X0325
X0335
X0345
Y041844
X0335
X0325
X0315
X03845Y04335
Y04435
T04
X0172Y03195
X0182
X0192
X0221Y03196
X0231
X0241
Y03496
X0231
X0221
X0192Y03495
X0182
X0172
X02755
X02855
X02955
Y03195
X02855
X02755
X03245Y03196
X03345
X03445
Y03496
X03345
X03245
T05
X0315Y020306
X0325
X03845Y02605
Y02705
Y02805
Y030302
X0305Y020306
X0295
X02215
X02115
X02015
X01915
X0192Y046594
X0202
X0212
X0222
X0295
X0305
X0305Y044153
X0295
X0315
X0325
X0325Y046594
X0315
X03845Y040806
Y039806
Y038806
Y036554
Y035554
Y034554
Y032302
Y031302
T06
X0151Y03045
Y03245
Y03445
Y03645
T07
X039528Y019671
X011968
X039528Y04723
X011968
T08
X0141Y02945
Y03745
T09
X0111Y03145
Y03545
M30
