M48
;Layer_Color=6321
;FILE_FORMAT=2:5
INCH,LZ
;TYPE=PLATED
T1F00S00C0.02362
T2F00S00C0.03150
T3F00S00C0.03600
T4F00S00C0.03800
T5F00S00C0.04000
T6F00S00C0.05984
T7F00S00C0.15748
;TYPE=NON_PLATED
T8F00S00C0.07874
T9F00S00C0.15709
%
T01
X0118579Y0274
X0128421
Y03955
X0118579
T02
X034511Y0217499
X0358889
X0256279Y0217501
X02425
X0260991Y0449
X027477
X01725
X0158721
T03
X0315Y0250563
X0325
X0335
X0345
Y0300563
X0335
X0325
X0315
X03845Y0235067
Y0225067
X0305Y0250563
X0295
X0285
X0275
X02415
X02315
X02215
X02115
X02015
X01915
X01815
X01715
Y0300563
X01815
X01915
X02015
X02115
X02215
X02315
X02415
X0275
X0285
X0295
X0305
X0108Y04165
Y04265
X01715Y0418437
X01815
X01915
X02015
X02115
X02215
X02315
X02415
X0275
X0285
X0295
X0305
Y0368437
X0295
X0285
X0275
X02415
X02315
X02215
X02115
X02015
X01915
X01815
X01715
X0315
X0325
X0335
X0345
Y0418437
X0335
X0325
X0315
X03845Y0433496
Y0443496
T04
X0172Y03195
X0182
X0192
X0221Y03196
X0231
X0241
Y03496
X0231
X0221
X0192Y03495
X0182
X0172
X02755
X02855
X02955
Y03195
X02855
X02755
X03245Y03196
X03345
X03445
Y03496
X03345
X03245
T05
X0315Y0203063
X0325
X03845Y02605
Y02705
Y02805
Y0303021
X0305Y0203063
X0295
X02215
X02115
X02015
X01915
X0192Y0465937
X0202
X0212
X0222
X0295
X0305
X0305Y0441525
X0295
X0315
X0325
X0325Y0465937
X0315
X03845Y0408063
Y0398063
Y0388063
Y0365542
Y0355542
Y0345542
Y0323021
Y0313021
T06
X0149Y03045
Y03245
Y03445
Y03645
T07
X0395275Y019671
X0119685
X0395275Y0472301
X0119685
T08
X0139Y02945
Y03745
T09
X0109Y03145
Y03545
M30
