G04 Layer_Physical_Order=2*
G04 Layer_Color=11436288*
%FSLAX44Y44*%
%MOMM*%
G71*
G01*
G75*
%ADD10C,1.5240*%
%ADD11C,0.7620*%
%ADD12C,0.2540*%
%ADD13O,3.0480X1.5240*%
%ADD14O,1.5240X3.0480*%
G04:AMPARAMS|DCode=15|XSize=1.524mm|YSize=2.032mm|CornerRadius=0.381mm|HoleSize=0mm|Usage=FLASHONLY|Rotation=90.000|XOffset=0mm|YOffset=0mm|HoleType=Round|Shape=RoundedRectangle|*
%AMROUNDEDRECTD15*
21,1,1.5240,1.2700,0,0,90.0*
21,1,0.7620,2.0320,0,0,90.0*
1,1,0.7620,0.6350,0.3810*
1,1,0.7620,0.6350,-0.3810*
1,1,0.7620,-0.6350,-0.3810*
1,1,0.7620,-0.6350,0.3810*
%
%ADD15ROUNDEDRECTD15*%
%ADD16R,2.0320X1.5240*%
%ADD17C,1.5240*%
%ADD18R,1.5240X2.0320*%
G04:AMPARAMS|DCode=19|XSize=1.524mm|YSize=2.032mm|CornerRadius=0.381mm|HoleSize=0mm|Usage=FLASHONLY|Rotation=0.000|XOffset=0mm|YOffset=0mm|HoleType=Round|Shape=RoundedRectangle|*
%AMROUNDEDRECTD19*
21,1,1.5240,1.2700,0,0,0.0*
21,1,0.7620,2.0320,0,0,0.0*
1,1,0.7620,0.3810,-0.6350*
1,1,0.7620,-0.3810,-0.6350*
1,1,0.7620,-0.3810,0.6350*
1,1,0.7620,0.3810,0.6350*
%
%ADD19ROUNDEDRECTD19*%
G04:AMPARAMS|DCode=20|XSize=3mm|YSize=3mm|CornerRadius=0.75mm|HoleSize=0mm|Usage=FLASHONLY|Rotation=270.000|XOffset=0mm|YOffset=0mm|HoleType=Round|Shape=RoundedRectangle|*
%AMROUNDEDRECTD20*
21,1,3.0000,1.5000,0,0,270.0*
21,1,1.5000,3.0000,0,0,270.0*
1,1,1.5000,-0.7500,-0.7500*
1,1,1.5000,-0.7500,0.7500*
1,1,1.5000,0.7500,0.7500*
1,1,1.5000,0.7500,-0.7500*
%
%ADD20ROUNDEDRECTD20*%
%ADD21C,3.0000*%
%ADD22O,1.5240X2.5400*%
%ADD23R,1.9050X1.9050*%
G36*
X601527Y748868D02*
X603836Y747096D01*
X606616Y745944D01*
X609600Y745551D01*
X617220D01*
X620204Y745944D01*
X621935Y746661D01*
X653122D01*
X669531Y730252D01*
X669045Y729079D01*
X482295D01*
X473809Y737565D01*
Y747818D01*
X475079Y748444D01*
X476836Y747096D01*
X477522Y746812D01*
X479172Y745457D01*
X481820Y744042D01*
X484693Y743170D01*
X487680Y742876D01*
X513080D01*
X516068Y743170D01*
X518940Y744042D01*
X521588Y745457D01*
X523909Y747362D01*
X525195Y748929D01*
X525248Y748928D01*
X527636Y747096D01*
X530416Y745944D01*
X533400Y745551D01*
X541020D01*
X544004Y745944D01*
X546784Y747096D01*
X549093Y748868D01*
X549478Y749062D01*
X550342D01*
X550727Y748868D01*
X553036Y747096D01*
X555816Y745944D01*
X558800Y745551D01*
X566420D01*
X569404Y745944D01*
X572184Y747096D01*
X574493Y748868D01*
X574878Y749062D01*
X575742D01*
X576127Y748868D01*
X578436Y747096D01*
X581216Y745944D01*
X584200Y745551D01*
X591820D01*
X594804Y745944D01*
X597584Y747096D01*
X599893Y748868D01*
X600278Y749062D01*
X601142D01*
X601527Y748868D01*
D02*
G37*
G36*
X959688Y1024415D02*
Y1023145D01*
X958181Y1021909D01*
X956277Y1019588D01*
X954862Y1016940D01*
X953990Y1014068D01*
X953696Y1011080D01*
X953990Y1008092D01*
X954862Y1005220D01*
X956277Y1002572D01*
X958181Y1000252D01*
X959688Y999015D01*
Y997745D01*
X958181Y996509D01*
X956277Y994188D01*
X954862Y991540D01*
X953990Y988668D01*
X953696Y985680D01*
X953990Y982692D01*
X954862Y979820D01*
X956277Y977172D01*
X958181Y974852D01*
X960502Y972947D01*
X960627Y972880D01*
X960318Y971648D01*
X885938D01*
X885452Y972822D01*
X937422Y1024791D01*
X959230D01*
X959688Y1024415D01*
D02*
G37*
G36*
X582974Y959958D02*
X581128Y958112D01*
X579296Y955724D01*
X578144Y952944D01*
X577997Y951828D01*
X576127Y950392D01*
X575742Y950198D01*
X574878D01*
X574494Y950392D01*
X572184Y952164D01*
X569404Y953316D01*
X566420Y953709D01*
X558800D01*
X555816Y953316D01*
X553036Y952164D01*
X550648Y950332D01*
X550551Y950205D01*
X549269D01*
X549172Y950332D01*
X546784Y952164D01*
X544004Y953316D01*
X541020Y953709D01*
X533400D01*
X530416Y953316D01*
X527636Y952164D01*
X525248Y950332D01*
X525145Y950198D01*
X523875D01*
X523772Y950332D01*
X521384Y952164D01*
X518604Y953316D01*
X515620Y953709D01*
X508000D01*
X505016Y953316D01*
X502236Y952164D01*
X499927Y950392D01*
X499542Y950198D01*
X498678D01*
X498294Y950392D01*
X495984Y952164D01*
X493204Y953316D01*
X490220Y953709D01*
X482600D01*
X479616Y953316D01*
X476836Y952164D01*
X474448Y950332D01*
X474345Y950198D01*
X473075D01*
X472972Y950332D01*
X470584Y952164D01*
X467804Y953316D01*
X464820Y953709D01*
X461132D01*
X460646Y954882D01*
X466895Y961131D01*
X582488D01*
X582974Y959958D01*
D02*
G37*
G36*
X690670Y1133214D02*
X692792Y1131585D01*
X695264Y1130562D01*
X697916Y1130212D01*
X698500Y1129700D01*
Y1075654D01*
X694690D01*
X692212Y1075162D01*
X690112Y1073758D01*
X688708Y1071658D01*
X688216Y1069180D01*
Y1061720D01*
X658710D01*
X642103Y1045113D01*
X640930Y1045599D01*
Y1082823D01*
X673745Y1115638D01*
X675650Y1117959D01*
X675919Y1118463D01*
X690670Y1133214D01*
X690670D01*
D02*
G37*
G36*
X954895Y718392D02*
X954862Y718330D01*
X953990Y715457D01*
X953696Y712470D01*
X953990Y709482D01*
X954862Y706610D01*
X956277Y703962D01*
X958181Y701641D01*
X959688Y700405D01*
Y699135D01*
X958181Y697898D01*
X956277Y695578D01*
X954862Y692930D01*
X953990Y690057D01*
X953696Y687070D01*
X953931Y684689D01*
X952711Y684112D01*
X928166Y708658D01*
X928652Y709831D01*
X939763D01*
X942746Y710224D01*
X944375Y710899D01*
X945527Y711376D01*
X947915Y713208D01*
X953864Y719157D01*
X954895Y718392D01*
D02*
G37*
G36*
X427406Y1138122D02*
X428296Y1137700D01*
X429275Y1135336D01*
X430904Y1133214D01*
X433026Y1131585D01*
X435498Y1130562D01*
X435796Y1130522D01*
X436411Y1076558D01*
X435518Y1075654D01*
X431800D01*
X429323Y1075162D01*
X427222Y1073758D01*
X425819Y1071658D01*
X425326Y1069180D01*
Y1064100D01*
X435610D01*
Y1061560D01*
X425326D01*
Y1056480D01*
X425819Y1054002D01*
X427222Y1051902D01*
X429323Y1050498D01*
X431800Y1050006D01*
X436714D01*
X436880Y1035396D01*
Y1032510D01*
X455930Y1013460D01*
X448281Y1005811D01*
X445721Y1004443D01*
X443401Y1002539D01*
X400312Y959449D01*
X398407Y957129D01*
X397039Y954569D01*
X394970Y952500D01*
X379730D01*
Y943457D01*
Y925830D01*
X378460D01*
Y924560D01*
X360833D01*
Y918330D01*
X361178Y915709D01*
X362190Y913267D01*
X363799Y911169D01*
X334010Y881380D01*
Y806214D01*
X332740Y804944D01*
X278130Y750334D01*
Y748030D01*
Y631190D01*
X441960Y467360D01*
X610908D01*
X615950Y472402D01*
Y542204D01*
X618602Y542553D01*
X621074Y543577D01*
X623196Y545205D01*
X624825Y547328D01*
X625849Y549799D01*
X626031Y551182D01*
X615950D01*
Y553722D01*
X626031D01*
X625849Y555104D01*
X624825Y557575D01*
X623196Y559698D01*
X621074Y561326D01*
X618602Y562350D01*
X615950Y562699D01*
Y623606D01*
X617220D01*
X619698Y624098D01*
X620941Y624929D01*
X631190Y614680D01*
Y521970D01*
Y520121D01*
X681411Y469900D01*
X692610D01*
X695020Y468612D01*
X697892Y467741D01*
X700880Y467446D01*
X855599D01*
X858587Y467741D01*
X861459Y468612D01*
X863869Y469900D01*
X875068D01*
X913839Y508671D01*
X911169Y511342D01*
X911169Y541842D01*
X911578Y542201D01*
X914230Y542550D01*
X916702Y543574D01*
X918824Y545202D01*
X920453Y547324D01*
X921477Y549796D01*
X921658Y551178D01*
X911578D01*
Y552448D01*
X910308D01*
Y562529D01*
X908926Y562347D01*
X906454Y561323D01*
X904332Y559695D01*
X904332Y559695D01*
X875030Y588996D01*
Y622394D01*
Y636430D01*
X877570D01*
Y623606D01*
X880110D01*
X882588Y624098D01*
X884688Y625502D01*
X886092Y627602D01*
X886584Y630080D01*
Y637026D01*
X887758Y637512D01*
X949960Y575310D01*
Y469900D01*
X947420Y467360D01*
X930910Y450850D01*
X254898Y450850D01*
X254000Y451748D01*
X254000Y781189D01*
X255270Y781657D01*
X257305Y779275D01*
X260605Y776456D01*
X264305Y774189D01*
X268314Y772528D01*
X272534Y771515D01*
X276860Y771175D01*
X281186Y771515D01*
X285406Y772528D01*
X289415Y774189D01*
X293115Y776456D01*
X296415Y779275D01*
X299234Y782575D01*
X301501Y786275D01*
X303162Y790284D01*
X304175Y794504D01*
X304515Y798830D01*
X304175Y803156D01*
X303162Y807376D01*
X301501Y811385D01*
X299234Y815085D01*
X296415Y818385D01*
X293115Y821204D01*
X289415Y823471D01*
X285406Y825132D01*
X281186Y826145D01*
X276860Y826485D01*
X272534Y826145D01*
X268314Y825132D01*
X264305Y823471D01*
X260605Y821204D01*
X257305Y818385D01*
X255270Y816003D01*
X254000Y816471D01*
Y882789D01*
X255270Y883257D01*
X257305Y880875D01*
X260605Y878056D01*
X264305Y875789D01*
X268314Y874128D01*
X272534Y873115D01*
X276860Y872775D01*
X281186Y873115D01*
X285406Y874128D01*
X289415Y875789D01*
X293115Y878056D01*
X296415Y880875D01*
X299234Y884175D01*
X301501Y887875D01*
X303162Y891884D01*
X304175Y896104D01*
X304515Y900430D01*
X304175Y904756D01*
X303162Y908976D01*
X301501Y912985D01*
X299234Y916685D01*
X296415Y919985D01*
X293115Y922804D01*
X289415Y925071D01*
X285406Y926732D01*
X281186Y927745D01*
X276860Y928085D01*
X272534Y927745D01*
X268314Y926732D01*
X264305Y925071D01*
X260605Y922804D01*
X257305Y919985D01*
X255270Y917603D01*
X254000Y918071D01*
Y932180D01*
X255270Y933450D01*
X319057Y997237D01*
X321066Y995695D01*
X323538Y994671D01*
X324920Y994490D01*
Y1004570D01*
X326190D01*
Y1005840D01*
X336270D01*
X336088Y1007222D01*
X335065Y1009694D01*
X333436Y1011816D01*
X331314Y1013445D01*
X328842Y1014469D01*
X326840Y1014732D01*
X326513Y1016056D01*
X413979Y1103522D01*
X413979Y1103522D01*
X415884Y1105843D01*
X417299Y1108491D01*
X418170Y1111363D01*
X418465Y1114351D01*
X418465Y1114351D01*
Y1129665D01*
X427045Y1138245D01*
X427406Y1138122D01*
D02*
G37*
G36*
X255490Y990217D02*
X256362Y987344D01*
X257777Y984697D01*
X259681Y982376D01*
X275869Y966188D01*
Y964918D01*
X255173Y944222D01*
X254000Y944709D01*
X254000Y992390D01*
X255270Y992452D01*
X255490Y990217D01*
D02*
G37*
G36*
X702711Y962658D02*
X693621Y953568D01*
X691706Y953316D01*
X688926Y952164D01*
X686538Y950332D01*
X684706Y947944D01*
X683554Y945164D01*
X683161Y942180D01*
Y929480D01*
X683554Y926496D01*
X684706Y923716D01*
X686538Y921328D01*
X688926Y919496D01*
X691706Y918344D01*
X694690Y917951D01*
X700598D01*
X701084Y916778D01*
X691618Y907312D01*
X689786Y904924D01*
X689414Y904026D01*
X688941Y903639D01*
X687037Y901318D01*
X685622Y898670D01*
X684751Y895798D01*
X684456Y892810D01*
Y882650D01*
X684751Y879662D01*
X685622Y876790D01*
X687037Y874142D01*
X688941Y871822D01*
X691262Y869917D01*
X693910Y868502D01*
X696782Y867630D01*
X699770Y867336D01*
X702758Y867630D01*
X705630Y868502D01*
X708278Y869917D01*
X710599Y871822D01*
X711835Y873328D01*
X713105D01*
X714342Y871822D01*
X716662Y869917D01*
X719310Y868502D01*
X722182Y867630D01*
X725170Y867336D01*
X728158Y867630D01*
X731030Y868502D01*
X733678Y869917D01*
X735999Y871822D01*
X737235Y873328D01*
X738505D01*
X739742Y871822D01*
X742062Y869917D01*
X744710Y868502D01*
X747582Y867630D01*
X750570Y867336D01*
X753558Y867630D01*
X756430Y868502D01*
X759078Y869917D01*
X761398Y871822D01*
X763303Y874142D01*
X764718Y876790D01*
X765590Y879662D01*
X765884Y882650D01*
Y889280D01*
X782852Y906248D01*
X784684Y908636D01*
X785161Y909787D01*
X785836Y911416D01*
X786229Y914400D01*
Y920995D01*
X786583Y921268D01*
X786968Y921462D01*
X787832D01*
X788217Y921268D01*
X790526Y919496D01*
X793306Y918344D01*
X796290Y917951D01*
X803910D01*
X805314Y918136D01*
X811456D01*
Y901496D01*
X810082Y898924D01*
X809211Y896052D01*
X808916Y893064D01*
Y885444D01*
Y882904D01*
Y875023D01*
X761362Y827469D01*
X759078Y829343D01*
X756430Y830758D01*
X753558Y831629D01*
X750570Y831924D01*
X747582Y831629D01*
X744710Y830758D01*
X742062Y829343D01*
X739742Y827439D01*
X738512Y825940D01*
X737228D01*
X735999Y827439D01*
X733678Y829343D01*
X731030Y830758D01*
X728158Y831629D01*
X725170Y831924D01*
X722182Y831629D01*
X719310Y830758D01*
X716662Y829343D01*
X715848Y828675D01*
X695392D01*
X629285Y894782D01*
Y905129D01*
X596062D01*
X595248Y905797D01*
X592600Y907212D01*
X589728Y908083D01*
X586740Y908378D01*
X583752Y908083D01*
X580880Y907212D01*
X578232Y905797D01*
X576620Y904474D01*
X571460D01*
X569848Y905797D01*
X567200Y907212D01*
X564328Y908083D01*
X563511Y908164D01*
X563390Y908228D01*
X560518Y909100D01*
X557530Y909394D01*
X552210D01*
X551254Y910350D01*
Y919444D01*
X553162D01*
X555816Y918344D01*
X558800Y917951D01*
X566420D01*
X569404Y918344D01*
X572184Y919496D01*
X574572Y921328D01*
X574675Y921462D01*
X575945D01*
X576048Y921328D01*
X578436Y919496D01*
X581216Y918344D01*
X584200Y917951D01*
X591820D01*
X594804Y918344D01*
X597584Y919496D01*
X599894Y921268D01*
X600278Y921462D01*
X601142D01*
X601527Y921268D01*
X603836Y919496D01*
X606616Y918344D01*
X609600Y917951D01*
X617220D01*
X620204Y918344D01*
X622984Y919496D01*
X625372Y921328D01*
X626802Y923192D01*
X634085D01*
X637069Y923584D01*
X639849Y924736D01*
X642237Y926568D01*
X679500Y963831D01*
X702225D01*
X702711Y962658D01*
D02*
G37*
G36*
X954862Y897216D02*
X956277Y894569D01*
X958181Y892248D01*
X959688Y891012D01*
Y889742D01*
X958181Y888505D01*
X956277Y886185D01*
X954862Y883537D01*
X953990Y880664D01*
X953696Y877677D01*
X953990Y874689D01*
X954862Y871816D01*
X956277Y869169D01*
X958181Y866848D01*
X960502Y864944D01*
X963149Y863529D01*
X966022Y862657D01*
X969010Y862363D01*
X984250D01*
X987237Y862657D01*
X990110Y863529D01*
X992435Y864771D01*
X999490D01*
X1002474Y865164D01*
X1004103Y865839D01*
X1005254Y866316D01*
X1007642Y868148D01*
X1019072Y879578D01*
X1020904Y881966D01*
X1020982Y882153D01*
X1022252Y881900D01*
Y813082D01*
X1021078Y812596D01*
X1005102Y828572D01*
X1002714Y830404D01*
X999934Y831556D01*
X996950Y831949D01*
X994290D01*
X992758Y833206D01*
X990110Y834621D01*
X987237Y835493D01*
X984250Y835787D01*
X969010D01*
X966022Y835493D01*
X963149Y834621D01*
X960502Y833206D01*
X958181Y831302D01*
X956277Y828981D01*
X954862Y826334D01*
X953990Y823461D01*
X953696Y820473D01*
X953990Y817486D01*
X954862Y814613D01*
X956277Y811965D01*
X958181Y809645D01*
X959688Y808408D01*
Y807138D01*
X958181Y805902D01*
X956277Y803581D01*
X954862Y800934D01*
X953990Y798061D01*
X953696Y795073D01*
X953990Y792086D01*
X954862Y789213D01*
X956277Y786565D01*
X958181Y784245D01*
X959381Y783260D01*
X959417Y781864D01*
X958662Y781149D01*
X887730D01*
X887730Y781149D01*
X884746Y780756D01*
X884113Y780494D01*
X883094Y780916D01*
X880110Y781309D01*
X877852D01*
X877366Y782482D01*
X883182Y788298D01*
X883182Y788298D01*
X885014Y790686D01*
X886166Y793466D01*
X886559Y796450D01*
Y796729D01*
X887763Y798196D01*
X889178Y800844D01*
X890050Y803716D01*
X890344Y806704D01*
Y816864D01*
X890050Y819852D01*
X889178Y822724D01*
X887763Y825372D01*
X885859Y827692D01*
X883538Y829597D01*
X880890Y831012D01*
X878018Y831883D01*
X875030Y832178D01*
X872042Y831883D01*
X869170Y831012D01*
X866522Y829597D01*
X864202Y827692D01*
X862965Y826186D01*
X861695D01*
X860459Y827692D01*
X858138Y829597D01*
X855490Y831012D01*
X852618Y831883D01*
X849630Y832178D01*
X846642Y831883D01*
X843770Y831012D01*
X841122Y829597D01*
X838801Y827692D01*
X837565Y826186D01*
X836295D01*
X835059Y827692D01*
X832738Y829597D01*
X830090Y831012D01*
X827218Y831883D01*
X824230Y832178D01*
X821242Y831883D01*
X818370Y831012D01*
X815722Y829597D01*
X813401Y827692D01*
X811497Y825372D01*
X810082Y822724D01*
X809211Y819852D01*
X808916Y816864D01*
Y808710D01*
X791948Y791742D01*
X790116Y789354D01*
X789639Y788203D01*
X788964Y786574D01*
X788571Y783590D01*
Y778264D01*
X788217Y777992D01*
X787832Y777798D01*
X786968D01*
X786583Y777992D01*
X784274Y779764D01*
X781494Y780916D01*
X778510Y781309D01*
X770890D01*
X767906Y780916D01*
X765728Y780014D01*
X763344D01*
Y795200D01*
X766064D01*
X769052Y795495D01*
X771924Y796366D01*
X774572Y797781D01*
X776892Y799686D01*
X835058Y857851D01*
X835059Y857852D01*
X836963Y860172D01*
X838378Y862820D01*
X839249Y865693D01*
X839544Y868680D01*
Y869981D01*
X840692Y870524D01*
X841122Y870171D01*
X843770Y868756D01*
X846642Y867885D01*
X849630Y867590D01*
X852618Y867885D01*
X855490Y868756D01*
X858138Y870171D01*
X858952Y870839D01*
X892175D01*
Y882106D01*
X892589Y883472D01*
X892884Y886460D01*
X892589Y889448D01*
X892175Y890814D01*
Y897410D01*
X954803D01*
X954862Y897216D01*
D02*
G37*
G36*
X681068Y799686D02*
X682625Y798408D01*
Y794385D01*
X715848D01*
X716662Y793717D01*
X719310Y792302D01*
X722182Y791431D01*
X725170Y791136D01*
X728158Y791431D01*
X731030Y792302D01*
X731627Y792621D01*
X732716Y791968D01*
Y781221D01*
X731660Y780516D01*
X730694Y780916D01*
X727710Y781309D01*
X720090D01*
X717106Y780916D01*
X714326Y779764D01*
X712017Y777992D01*
X711632Y777798D01*
X710768D01*
X710383Y777992D01*
X708074Y779764D01*
X705294Y780916D01*
X702310Y781309D01*
X694690D01*
X691706Y780916D01*
X688926Y779764D01*
X686538Y777932D01*
X684706Y775544D01*
X683554Y772764D01*
X683161Y769780D01*
Y757080D01*
X683554Y754096D01*
X684706Y751316D01*
X686538Y748928D01*
X686971Y748596D01*
Y747079D01*
X685798Y746593D01*
X666049Y766342D01*
X663662Y768174D01*
X662510Y768651D01*
X660881Y769326D01*
X657897Y769719D01*
X628749D01*
Y769780D01*
X628356Y772764D01*
X627204Y775544D01*
X625372Y777932D01*
X622984Y779764D01*
X620204Y780916D01*
X617220Y781309D01*
X615122D01*
X614636Y782482D01*
X620292Y788138D01*
X620292Y788138D01*
X621698Y789970D01*
X622124Y790525D01*
X623276Y793306D01*
X623669Y796290D01*
X623669Y796290D01*
Y796729D01*
X624873Y798196D01*
X626288Y800844D01*
X627160Y803716D01*
X627454Y806704D01*
Y810070D01*
X627479Y810260D01*
X627454Y810450D01*
Y816864D01*
X627160Y819852D01*
X626288Y822724D01*
X624873Y825372D01*
X622968Y827692D01*
X620648Y829597D01*
X618000Y831012D01*
X615128Y831883D01*
X612140Y832178D01*
X609152Y831883D01*
X606280Y831012D01*
X603632Y829597D01*
X601311Y827692D01*
X600075Y826186D01*
X598805D01*
X597569Y827692D01*
X595248Y829597D01*
X592600Y831012D01*
X589728Y831883D01*
X586740Y832178D01*
X583752Y831883D01*
X580880Y831012D01*
X578232Y829597D01*
X575911Y827692D01*
X574675Y826186D01*
X573405D01*
X572169Y827692D01*
X569848Y829597D01*
X567200Y831012D01*
X564328Y831883D01*
X561340Y832178D01*
X558352Y831883D01*
X555480Y831012D01*
X552832Y829597D01*
X550512Y827692D01*
X548607Y825372D01*
X547192Y822724D01*
X546320Y819852D01*
X546026Y816864D01*
Y807440D01*
X530328Y791742D01*
X528496Y789354D01*
X527344Y786574D01*
X526951Y783590D01*
Y779239D01*
X525327Y777992D01*
X524942Y777798D01*
X524078D01*
X523693Y777992D01*
X521384Y779764D01*
X518604Y780916D01*
X515620Y781309D01*
X508000D01*
X505016Y780916D01*
X502994Y780078D01*
X501724Y780912D01*
Y795200D01*
X505714D01*
X508702Y795495D01*
X511574Y796366D01*
X514222Y797781D01*
X516542Y799686D01*
X572169Y855312D01*
X574073Y857632D01*
X575488Y860280D01*
X576359Y863152D01*
X576654Y866140D01*
Y869981D01*
X577802Y870524D01*
X578232Y870171D01*
X580880Y868756D01*
X583752Y867885D01*
X586740Y867590D01*
X589728Y867885D01*
X592600Y868756D01*
X595248Y870171D01*
X596062Y870839D01*
X609914D01*
X681068Y799686D01*
D02*
G37*
G36*
X983006Y945060D02*
X982479Y943790D01*
X969010D01*
X966022Y943496D01*
X963149Y942625D01*
X962802Y942439D01*
X891605D01*
X891246Y945164D01*
X890352Y947321D01*
X891106Y948591D01*
X979475D01*
X983006Y945060D01*
D02*
G37*
G36*
X1022252Y989048D02*
Y939280D01*
X1020982Y939027D01*
X1020904Y939214D01*
X1019072Y941602D01*
X992402Y968272D01*
X990014Y970104D01*
X989806Y970190D01*
X989868Y971459D01*
X990110Y971532D01*
X992335Y972721D01*
X999490D01*
X1002474Y973114D01*
X1004103Y973789D01*
X1005254Y974266D01*
X1007642Y976098D01*
X1021078Y989534D01*
X1022252Y989048D01*
D02*
G37*
G36*
X937367Y756821D02*
X928675Y748129D01*
X889224D01*
X888623Y749399D01*
X890094Y751316D01*
X891246Y754096D01*
X891639Y757080D01*
Y757225D01*
X892505Y758091D01*
X936841D01*
X937367Y756821D01*
D02*
G37*
G36*
X1022252Y625595D02*
Y619418D01*
X1011432Y608599D01*
X991464D01*
X991132Y609032D01*
X988744Y610864D01*
X985964Y612016D01*
X982980Y612408D01*
X970280D01*
X967296Y612016D01*
X964516Y610864D01*
X962128Y609032D01*
X960690Y609244D01*
X955256Y614678D01*
X955742Y615851D01*
X1006073D01*
X1009057Y616244D01*
X1011837Y617396D01*
X1014225Y619228D01*
X1021078Y626081D01*
X1022252Y625595D01*
D02*
G37*
G36*
X1054100Y1247512D02*
X1054100Y449580D01*
X942169D01*
X941683Y450753D01*
X952855Y461925D01*
X952855Y461925D01*
X955395Y464465D01*
X956616Y466057D01*
X956841Y466600D01*
X957384Y467911D01*
X957646Y469900D01*
Y575310D01*
X957384Y577299D01*
X956616Y579153D01*
X955395Y580745D01*
X950245Y585894D01*
X950966Y586916D01*
X952118Y586439D01*
X953746Y585764D01*
X956730Y585371D01*
X961926D01*
X962128Y585108D01*
X964516Y583276D01*
X964940Y583100D01*
X964688Y581830D01*
X963930D01*
Y572940D01*
X989330D01*
Y581830D01*
X988572D01*
X988319Y583100D01*
X988744Y583276D01*
X991132Y585108D01*
X991464Y585541D01*
X1016207D01*
X1019191Y585934D01*
X1021972Y587086D01*
X1024359Y588918D01*
X1041932Y606491D01*
X1043764Y608879D01*
X1044916Y611659D01*
X1045309Y614643D01*
Y1076960D01*
X1044916Y1079944D01*
X1043764Y1082724D01*
X1041932Y1085112D01*
X1019072Y1107972D01*
X1016684Y1109804D01*
X1013904Y1110956D01*
X1010920Y1111348D01*
X992431D01*
X991132Y1113042D01*
X988744Y1114874D01*
X988319Y1115050D01*
X988572Y1116320D01*
X989330D01*
Y1125210D01*
X963930D01*
Y1116320D01*
X964688D01*
X964940Y1115050D01*
X964516Y1114874D01*
X962128Y1113042D01*
X960828Y1111348D01*
X873760D01*
X870776Y1110956D01*
X867996Y1109804D01*
X865608Y1107972D01*
X863602Y1105966D01*
X862429Y1106452D01*
Y1205230D01*
X862036Y1208214D01*
X860884Y1210994D01*
X859052Y1213382D01*
X848732Y1223702D01*
X846344Y1225534D01*
X845192Y1226011D01*
X843564Y1226686D01*
X840580Y1227079D01*
X656479D01*
X653495Y1226686D01*
X650715Y1225534D01*
X648327Y1223702D01*
X648327Y1223702D01*
X581128Y1156503D01*
X580464Y1155637D01*
X579194Y1156068D01*
X579194Y1185070D01*
Y1191100D01*
X578899Y1194088D01*
X578028Y1196960D01*
X576613Y1199608D01*
X574709Y1201928D01*
X572388Y1203833D01*
X569740Y1205248D01*
X566868Y1206120D01*
X563880Y1206414D01*
X560892Y1206120D01*
X558020Y1205248D01*
X555372Y1203833D01*
X553051Y1201928D01*
X551815Y1200422D01*
X550545D01*
X549309Y1201928D01*
X546988Y1203833D01*
X544340Y1205248D01*
X541468Y1206120D01*
X538480Y1206414D01*
X535492Y1206120D01*
X532620Y1205248D01*
X529972Y1203833D01*
X527651Y1201928D01*
X526415Y1200422D01*
X525145D01*
X523909Y1201928D01*
X521588Y1203833D01*
X518940Y1205248D01*
X516068Y1206120D01*
X513080Y1206414D01*
X510092Y1206120D01*
X507220Y1205248D01*
X504572Y1203833D01*
X502252Y1201928D01*
X501015Y1200422D01*
X499745D01*
X498508Y1201928D01*
X496188Y1203833D01*
X493540Y1205248D01*
X490668Y1206120D01*
X487680Y1206414D01*
X484692Y1206120D01*
X481820Y1205248D01*
X479172Y1203833D01*
X476852Y1201928D01*
X474947Y1199608D01*
X473532Y1196960D01*
X472660Y1194088D01*
X472366Y1191100D01*
Y1175860D01*
Y1175860D01*
X472366Y1074342D01*
X471666Y1072650D01*
X470345Y1072431D01*
X470274Y1072448D01*
X469398Y1073758D01*
X467298Y1075162D01*
X464820Y1075654D01*
X462280D01*
Y1062830D01*
Y1050006D01*
X464820D01*
X467298Y1050498D01*
X469398Y1051902D01*
X470274Y1053212D01*
X470345Y1053229D01*
X471666Y1053010D01*
X472616Y1050716D01*
X474448Y1048328D01*
X476836Y1046496D01*
X479616Y1045344D01*
X482600Y1044951D01*
X490220D01*
X493204Y1045344D01*
X495984Y1046496D01*
X498294Y1048268D01*
X498678Y1048462D01*
X499542D01*
X499927Y1048268D01*
X502236Y1046496D01*
X505016Y1045344D01*
X508000Y1044951D01*
X515620D01*
X518604Y1045344D01*
X521384Y1046496D01*
X523772Y1048328D01*
X523875Y1048462D01*
X525145D01*
X525248Y1048328D01*
X527636Y1046496D01*
X530416Y1045344D01*
X533400Y1044951D01*
X541020D01*
X544004Y1045344D01*
X546784Y1046496D01*
X549094Y1048268D01*
X549478Y1048462D01*
X550342D01*
X550727Y1048268D01*
X553036Y1046496D01*
X555816Y1045344D01*
X558800Y1044951D01*
X566420D01*
X569404Y1045344D01*
X572184Y1046496D01*
X574572Y1048328D01*
X574675Y1048462D01*
X575945D01*
X576048Y1048328D01*
X578436Y1046496D01*
X581216Y1045344D01*
X584200Y1044951D01*
X591820D01*
X594804Y1045344D01*
X597584Y1046496D01*
X599972Y1048328D01*
X601804Y1050716D01*
X601980Y1051140D01*
X603250Y1050888D01*
Y1050130D01*
X612140D01*
Y1062830D01*
Y1075530D01*
X603250D01*
Y1074772D01*
X601980Y1074520D01*
X601804Y1074944D01*
X600809Y1076242D01*
Y1143576D01*
X661255Y1204021D01*
X739020D01*
X739474Y1202751D01*
X738471Y1201928D01*
X736567Y1199608D01*
X735152Y1196960D01*
X734280Y1194088D01*
X733986Y1191100D01*
Y1188720D01*
X733986Y1129095D01*
X733986Y1129094D01*
Y1113854D01*
X733986Y1113854D01*
X733986Y1073503D01*
X732716Y1073118D01*
X732288Y1073758D01*
X730188Y1075162D01*
X727710Y1075654D01*
X725170D01*
Y1062830D01*
Y1050006D01*
X727710D01*
X730188Y1050498D01*
X732288Y1051902D01*
X733163Y1053212D01*
X733235Y1053229D01*
X734556Y1053010D01*
X735506Y1050716D01*
X737338Y1048328D01*
X739726Y1046496D01*
X742506Y1045344D01*
X745490Y1044951D01*
X753110D01*
X756094Y1045344D01*
X758874Y1046496D01*
X761183Y1048268D01*
X761568Y1048462D01*
X762432D01*
X762817Y1048268D01*
X765126Y1046496D01*
X767906Y1045344D01*
X770890Y1044951D01*
X778510D01*
X781494Y1045344D01*
X784274Y1046496D01*
X786583Y1048268D01*
X786968Y1048462D01*
X787832D01*
X788217Y1048268D01*
X790526Y1046496D01*
X793306Y1045344D01*
X796290Y1044951D01*
X803910D01*
X806894Y1045344D01*
X809674Y1046496D01*
X811983Y1048268D01*
X812368Y1048462D01*
X813232D01*
X813617Y1048268D01*
X815926Y1046496D01*
X818706Y1045344D01*
X821690Y1044951D01*
X829310D01*
X832294Y1045344D01*
X835074Y1046496D01*
X837383Y1048268D01*
X837768Y1048462D01*
X838632D01*
X839017Y1048268D01*
X841326Y1046496D01*
X844106Y1045344D01*
X847090Y1044951D01*
X854710D01*
X857694Y1045344D01*
X860474Y1046496D01*
X862862Y1048328D01*
X864694Y1050716D01*
X864870Y1051140D01*
X866140Y1050888D01*
Y1050130D01*
X875030D01*
Y1062830D01*
Y1075530D01*
X867570D01*
X867044Y1076800D01*
X878535Y1088291D01*
X963205D01*
X964516Y1087286D01*
X967296Y1086134D01*
X970280Y1085742D01*
X982980D01*
X985964Y1086134D01*
X988744Y1087286D01*
X990054Y1088291D01*
X1006145D01*
X1022252Y1072185D01*
Y1064935D01*
X1021078Y1064449D01*
X1006605Y1078922D01*
X1004218Y1080754D01*
X1003066Y1081231D01*
X1001437Y1081906D01*
X998453Y1082299D01*
X923992D01*
X923991Y1082299D01*
X921008Y1081906D01*
X918227Y1080754D01*
X915839Y1078922D01*
X887730Y1050813D01*
X886460Y1051339D01*
Y1061560D01*
X877570D01*
Y1050130D01*
X885251D01*
X885778Y1048860D01*
X854286Y1017369D01*
X662100D01*
X662099Y1017369D01*
X659116Y1016976D01*
X656335Y1015824D01*
X653947Y1013992D01*
X624144Y984189D01*
X462120D01*
X459136Y983796D01*
X456356Y982644D01*
X453968Y980812D01*
X453968Y980812D01*
X428728Y955572D01*
X426896Y953184D01*
X426564Y952383D01*
X426036Y952164D01*
X423648Y950332D01*
X421816Y947944D01*
X420664Y945164D01*
X420271Y942180D01*
Y929480D01*
X420664Y926496D01*
X421816Y923716D01*
X423648Y921328D01*
X426036Y919496D01*
X428816Y918344D01*
X431800Y917951D01*
X439420D01*
X441679Y918249D01*
X442272Y917046D01*
X432691Y907465D01*
X431020Y906958D01*
X428372Y905543D01*
X426051Y903639D01*
X424147Y901318D01*
X422732Y898670D01*
X421861Y895798D01*
X421566Y892810D01*
Y882650D01*
X421861Y879662D01*
X422732Y876790D01*
X424147Y874142D01*
X426051Y871822D01*
X428372Y869917D01*
X431020Y868502D01*
X433892Y867630D01*
X436880Y867336D01*
X439868Y867630D01*
X442740Y868502D01*
X445388Y869917D01*
X447709Y871822D01*
X448945Y873328D01*
X450215D01*
X451451Y871822D01*
X453772Y869917D01*
X456420Y868502D01*
X459292Y867630D01*
X462280Y867336D01*
X465268Y867630D01*
X468140Y868502D01*
X470788Y869917D01*
X473108Y871822D01*
X474345Y873328D01*
X475615D01*
X476852Y871822D01*
X479172Y869917D01*
X481820Y868502D01*
X484692Y867630D01*
X487680Y867336D01*
X490668Y867630D01*
X493540Y868502D01*
X496188Y869917D01*
X498508Y871822D01*
X500413Y874142D01*
X501828Y876790D01*
X502700Y879662D01*
X502994Y882650D01*
Y891820D01*
X519453Y908279D01*
X520626Y907793D01*
Y904007D01*
X520921Y901019D01*
X521792Y898146D01*
X523207Y895499D01*
X525112Y893178D01*
X535038Y883252D01*
X537359Y881347D01*
X540006Y879932D01*
X542879Y879061D01*
X545867Y878766D01*
X546026Y877521D01*
Y872483D01*
X500292Y826749D01*
X499023Y826811D01*
X498508Y827439D01*
X496188Y829343D01*
X493540Y830758D01*
X490668Y831629D01*
X487680Y831924D01*
X484692Y831629D01*
X481820Y830758D01*
X479172Y829343D01*
X476852Y827439D01*
X475622Y825940D01*
X474338D01*
X473108Y827439D01*
X470788Y829343D01*
X468140Y830758D01*
X465268Y831629D01*
X462280Y831924D01*
X459292Y831629D01*
X456420Y830758D01*
X453772Y829343D01*
X452958Y828675D01*
X419735D01*
Y825828D01*
X415544D01*
X412556Y825534D01*
X409684Y824662D01*
X407036Y823247D01*
X404715Y821342D01*
X379436Y796063D01*
X378460Y796159D01*
X374026Y795723D01*
X369762Y794429D01*
X365832Y792329D01*
X362388Y789502D01*
X359561Y786058D01*
X357461Y782128D01*
X356167Y777864D01*
X355731Y773430D01*
X356167Y768996D01*
X356922Y766507D01*
X355914Y765454D01*
X353060Y765735D01*
X349606Y765395D01*
X346284Y764388D01*
X343223Y762751D01*
X340541Y760549D01*
X338339Y757867D01*
X336702Y754806D01*
X335695Y751484D01*
X335355Y748030D01*
X335695Y744576D01*
X336702Y741255D01*
X338339Y738194D01*
X340541Y735510D01*
X343223Y733309D01*
X346284Y731673D01*
X349606Y730665D01*
X353060Y730325D01*
X356514Y730665D01*
X359836Y731673D01*
X362896Y733309D01*
X365579Y735510D01*
X365736Y735701D01*
X366931Y735273D01*
Y729945D01*
X344475Y707489D01*
X336165D01*
X334698Y708693D01*
X332050Y710108D01*
X329178Y710980D01*
X326190Y711274D01*
X323202Y710980D01*
X320330Y710108D01*
X317682Y708693D01*
X315361Y706788D01*
X313457Y704468D01*
X312042Y701820D01*
X311658Y700555D01*
X310311Y700489D01*
X310065Y701084D01*
X308436Y703206D01*
X306314Y704835D01*
X303842Y705859D01*
X302460Y706040D01*
Y695960D01*
Y685880D01*
X303842Y686061D01*
X306314Y687085D01*
X308436Y688714D01*
X310065Y690836D01*
X310311Y691431D01*
X311658Y691365D01*
X312042Y690100D01*
X313457Y687452D01*
X315361Y685132D01*
X317682Y683227D01*
X320330Y681812D01*
X323202Y680940D01*
X326190Y680646D01*
X329178Y680940D01*
X332050Y681812D01*
X334698Y683227D01*
X336165Y684431D01*
X349250D01*
X352234Y684824D01*
X353863Y685499D01*
X355014Y685976D01*
X357402Y687808D01*
X386612Y717018D01*
X386612Y717018D01*
X388018Y718850D01*
X388444Y719406D01*
X389596Y722186D01*
X389989Y725170D01*
X389989Y725170D01*
Y753944D01*
X391088Y754531D01*
X394532Y757358D01*
X397359Y760802D01*
X399459Y764732D01*
X400753Y768996D01*
X401189Y773430D01*
X401093Y774406D01*
X421072Y794385D01*
X452958D01*
X453772Y793717D01*
X456420Y792302D01*
X459292Y791431D01*
X462280Y791136D01*
X465268Y791431D01*
X468140Y792302D01*
X469826Y793203D01*
X471096Y792442D01*
Y780911D01*
X469826Y780078D01*
X467804Y780916D01*
X464820Y781309D01*
X457200D01*
X454216Y780916D01*
X451436Y779764D01*
X449127Y777992D01*
X448742Y777798D01*
X447878D01*
X447493Y777992D01*
X445184Y779764D01*
X442404Y780916D01*
X439420Y781309D01*
X431800D01*
X428816Y780916D01*
X426036Y779764D01*
X423648Y777932D01*
X421816Y775544D01*
X420664Y772764D01*
X420271Y769780D01*
Y757080D01*
X420664Y754096D01*
X421816Y751316D01*
X422811Y750018D01*
Y725170D01*
X423204Y722186D01*
X423879Y720557D01*
X424356Y719406D01*
X426188Y717018D01*
X449048Y694158D01*
X451436Y692326D01*
X454216Y691174D01*
X457200Y690781D01*
X482972D01*
X483458Y689608D01*
X454128Y660278D01*
X452296Y657891D01*
X451144Y655110D01*
X450768Y652252D01*
X449048Y650932D01*
X447216Y648544D01*
X447040Y648120D01*
X445770Y648372D01*
Y649130D01*
X436880D01*
Y636430D01*
Y623730D01*
X445770D01*
Y624488D01*
X447040Y624740D01*
X447216Y624316D01*
X449048Y621928D01*
X451436Y620096D01*
X454216Y618944D01*
X457200Y618551D01*
X464820D01*
X467804Y618944D01*
X469826Y619782D01*
X471096Y618949D01*
Y523400D01*
Y515780D01*
Y508160D01*
X471390Y505172D01*
X472262Y502300D01*
X473677Y499652D01*
X475582Y497332D01*
X477902Y495427D01*
X480550Y494012D01*
X483422Y493140D01*
X486410Y492846D01*
X489398Y493140D01*
X492270Y494012D01*
X494918Y495427D01*
X497239Y497332D01*
X498475Y498838D01*
X499745D01*
X500981Y497332D01*
X503302Y495427D01*
X505950Y494012D01*
X508822Y493140D01*
X511810Y492846D01*
X514798Y493140D01*
X517670Y494012D01*
X520318Y495427D01*
X522639Y497332D01*
X523875Y498838D01*
X525145D01*
X526381Y497332D01*
X528702Y495427D01*
X531350Y494012D01*
X534222Y493140D01*
X537210Y492846D01*
X540198Y493140D01*
X543070Y494012D01*
X545718Y495427D01*
X548038Y497332D01*
X549275Y498838D01*
X550545D01*
X551782Y497332D01*
X554102Y495427D01*
X556750Y494012D01*
X559622Y493140D01*
X562610Y492846D01*
X565598Y493140D01*
X568470Y494012D01*
X571118Y495427D01*
X573438Y497332D01*
X575343Y499652D01*
X576758Y502300D01*
X577630Y505172D01*
X577924Y508160D01*
Y523400D01*
Y625757D01*
X579194Y626143D01*
X579622Y625502D01*
X581722Y624098D01*
X584200Y623606D01*
X586740D01*
Y636430D01*
Y649254D01*
X584200D01*
X581722Y648762D01*
X579622Y647358D01*
X578747Y646048D01*
X578675Y646031D01*
X577354Y646250D01*
X576404Y648544D01*
X574572Y650932D01*
X572184Y652764D01*
X569404Y653916D01*
X566420Y654309D01*
X558800D01*
X555816Y653916D01*
X553036Y652764D01*
X550727Y650992D01*
X550342Y650798D01*
X549478D01*
X549093Y650992D01*
X546784Y652764D01*
X544004Y653916D01*
X541020Y654309D01*
X533400D01*
X530416Y653916D01*
X527636Y652764D01*
X525327Y650992D01*
X524942Y650798D01*
X524078D01*
X523693Y650992D01*
X521384Y652764D01*
X518604Y653916D01*
X515620Y654309D01*
X508000D01*
X505016Y653916D01*
X502236Y652764D01*
X499927Y650992D01*
X499542Y650798D01*
X498678D01*
X498293Y650992D01*
X495984Y652764D01*
X493204Y653916D01*
X490220Y654309D01*
X482600D01*
X482447Y654288D01*
X481885Y655427D01*
X501999Y675541D01*
X659584D01*
X682878Y652248D01*
X685265Y650416D01*
X687260Y649589D01*
X688340Y649130D01*
Y637700D01*
X698500D01*
Y636430D01*
X699770D01*
Y623730D01*
X708660D01*
Y624488D01*
X709930Y624740D01*
X710106Y624316D01*
X711938Y621928D01*
X714326Y620096D01*
X717106Y618944D01*
X720090Y618551D01*
X727710D01*
X730694Y618944D01*
X732716Y619782D01*
X733986Y618948D01*
Y523400D01*
Y515780D01*
Y508160D01*
X734280Y505172D01*
X735152Y502300D01*
X736567Y499652D01*
X738471Y497332D01*
X740792Y495427D01*
X743439Y494012D01*
X746312Y493140D01*
X749300Y492846D01*
X752287Y493140D01*
X755160Y494012D01*
X757807Y495427D01*
X760128Y497332D01*
X761365Y498838D01*
X762635D01*
X763871Y497332D01*
X766192Y495427D01*
X768839Y494012D01*
X771712Y493140D01*
X774700Y492846D01*
X777687Y493140D01*
X780560Y494012D01*
X783207Y495427D01*
X785528Y497332D01*
X786765Y498838D01*
X788035D01*
X789271Y497332D01*
X791592Y495427D01*
X794239Y494012D01*
X797112Y493140D01*
X800100Y492846D01*
X803087Y493140D01*
X805960Y494012D01*
X808607Y495427D01*
X810928Y497332D01*
X812165Y498838D01*
X813435D01*
X814671Y497332D01*
X816992Y495427D01*
X819639Y494012D01*
X822512Y493140D01*
X825500Y492846D01*
X828487Y493140D01*
X831360Y494012D01*
X834007Y495427D01*
X836328Y497332D01*
X838232Y499652D01*
X839648Y502300D01*
X840519Y505172D01*
X840813Y508160D01*
Y523400D01*
Y625758D01*
X842083Y626143D01*
X842512Y625502D01*
X844612Y624098D01*
X847090Y623606D01*
X849630D01*
Y636430D01*
X852170D01*
Y623606D01*
X854710D01*
X857188Y624098D01*
X859288Y625502D01*
X859716Y626143D01*
X860986Y625757D01*
Y587726D01*
X861281Y584739D01*
X862152Y581866D01*
X863567Y579218D01*
X865471Y576898D01*
X878667Y563702D01*
X878074Y562499D01*
X877849Y562529D01*
Y553718D01*
X886659D01*
X886630Y553944D01*
X887832Y554537D01*
X896264Y546105D01*
Y512753D01*
X860124Y476613D01*
X858504Y475747D01*
X857080Y475315D01*
X856051Y475214D01*
X700428D01*
X699399Y475315D01*
X697975Y475747D01*
X696355Y476613D01*
X638876Y534092D01*
Y614680D01*
X638876Y614680D01*
X638614Y616669D01*
X637846Y618523D01*
X636625Y620115D01*
X636625Y620115D01*
X629994Y626746D01*
Y631190D01*
X629700Y634178D01*
X628828Y637050D01*
X628749Y637199D01*
Y642780D01*
X628356Y645764D01*
X627204Y648544D01*
X625372Y650932D01*
X622984Y652764D01*
X620204Y653916D01*
X617220Y654309D01*
X609600D01*
X606616Y653916D01*
X603836Y652764D01*
X601448Y650932D01*
X599616Y648544D01*
X598666Y646250D01*
X597345Y646031D01*
X597273Y646048D01*
X596398Y647358D01*
X594298Y648762D01*
X591820Y649254D01*
X589280D01*
Y636430D01*
Y623606D01*
X591820D01*
X594298Y624098D01*
X596398Y625502D01*
X597273Y626812D01*
X597345Y626829D01*
X598666Y626610D01*
X599366Y624918D01*
Y553722D01*
X599661Y550734D01*
X600532Y547861D01*
X600636Y547666D01*
Y535361D01*
Y478745D01*
X597105Y475214D01*
X454455D01*
X293444Y636225D01*
Y687497D01*
X294714Y688123D01*
X296066Y687085D01*
X298538Y686061D01*
X299920Y685880D01*
Y695960D01*
Y706040D01*
X298538Y705859D01*
X296066Y704835D01*
X294714Y703797D01*
X293444Y704423D01*
Y743991D01*
X343568Y794115D01*
X345473Y796436D01*
X346888Y799083D01*
X347760Y801956D01*
X348054Y804944D01*
Y873767D01*
X377424Y903137D01*
X385960D01*
X388924Y903429D01*
X391774Y904293D01*
X394401Y905697D01*
X396703Y907587D01*
X398593Y909889D01*
X399997Y912516D01*
X400861Y915366D01*
X401153Y918330D01*
Y933330D01*
X400861Y936294D01*
X399997Y939144D01*
X398593Y941771D01*
X396934Y943792D01*
X396944Y944303D01*
X397054Y944740D01*
X397307Y945220D01*
X397502Y945301D01*
X398813Y945844D01*
X399714Y946535D01*
X400405Y947065D01*
X400405Y947065D01*
X402474Y949134D01*
X402551Y949235D01*
X402649Y949315D01*
X403160Y950029D01*
X403695Y950726D01*
X403744Y950843D01*
X403817Y950946D01*
X404829Y952838D01*
X406013Y954282D01*
X448568Y996837D01*
X450012Y998021D01*
X451904Y999033D01*
X452007Y999107D01*
X452124Y999155D01*
X452821Y999690D01*
X453249Y999996D01*
X454718Y999550D01*
X457706Y999256D01*
X611560D01*
X614547Y999550D01*
X617420Y1000422D01*
X620067Y1001837D01*
X622388Y1003742D01*
X665053Y1046406D01*
X689142D01*
X691706Y1045344D01*
X694690Y1044951D01*
X702310D01*
X705294Y1045344D01*
X708074Y1046496D01*
X710462Y1048328D01*
X712294Y1050716D01*
X713244Y1053010D01*
X714565Y1053229D01*
X714637Y1053212D01*
X715512Y1051902D01*
X717612Y1050498D01*
X720090Y1050006D01*
X722630D01*
Y1062830D01*
Y1075654D01*
X720090D01*
X717612Y1075162D01*
X715512Y1073758D01*
X715084Y1073117D01*
X713814Y1073503D01*
Y1139876D01*
X713520Y1142863D01*
X712648Y1145736D01*
X711233Y1148384D01*
X709329Y1150704D01*
X708744Y1151289D01*
X706424Y1153193D01*
X703776Y1154608D01*
X700903Y1155480D01*
X697916Y1155774D01*
X694928Y1155480D01*
X692056Y1154608D01*
X689408Y1153193D01*
X687087Y1151289D01*
X685183Y1148968D01*
X683768Y1146320D01*
X682896Y1143448D01*
X682602Y1140460D01*
X682896Y1137472D01*
X683167Y1136580D01*
X670485Y1123898D01*
X670408Y1123798D01*
X670310Y1123717D01*
X669798Y1123003D01*
X669263Y1122306D01*
X669251Y1122278D01*
X668044Y1120806D01*
X635495Y1088257D01*
X634274Y1086666D01*
X633506Y1084812D01*
X633244Y1082823D01*
Y1057911D01*
X605216Y1029884D01*
X464049D01*
X452194Y1041739D01*
Y1050661D01*
X453464Y1051339D01*
X454723Y1050498D01*
X457200Y1050006D01*
X459740D01*
Y1062830D01*
Y1075654D01*
X457200D01*
X454723Y1075162D01*
X453464Y1074321D01*
X452194Y1074999D01*
Y1134405D01*
X452298Y1134600D01*
X453170Y1137472D01*
X453464Y1140460D01*
X453170Y1143448D01*
X452298Y1146320D01*
X450883Y1148968D01*
X448979Y1151289D01*
X446658Y1153193D01*
X444010Y1154608D01*
X441138Y1155480D01*
X438150Y1155774D01*
X435162Y1155480D01*
X432290Y1154608D01*
X429642Y1153193D01*
X427322Y1151289D01*
X426052Y1150019D01*
X424147Y1147698D01*
X422732Y1145050D01*
X422533Y1144395D01*
X421977Y1144023D01*
X421811Y1143833D01*
X421610Y1143680D01*
X413495Y1135564D01*
X412418Y1136283D01*
X413049Y1137808D01*
X413231Y1139190D01*
X404421D01*
Y1130379D01*
X405803Y1130562D01*
X408275Y1131585D01*
X409322Y1132389D01*
X411041Y1132107D01*
X411157Y1131935D01*
X411041Y1131654D01*
X410779Y1129665D01*
Y1114728D01*
X410596Y1112870D01*
X410164Y1111446D01*
X409462Y1110134D01*
X408278Y1108690D01*
X321078Y1021491D01*
X320513Y1020754D01*
X319935Y1020031D01*
X319904Y1019960D01*
X319857Y1019899D01*
X319502Y1019041D01*
X319130Y1018193D01*
X319119Y1018117D01*
X319094Y1018058D01*
X317682Y1017303D01*
X315361Y1015398D01*
X313457Y1013078D01*
X312042Y1010430D01*
X311658Y1009165D01*
X310311Y1009099D01*
X310065Y1009694D01*
X308436Y1011816D01*
X306314Y1013445D01*
X303842Y1014469D01*
X302460Y1014650D01*
Y1004570D01*
Y994490D01*
X303824Y994669D01*
X303862Y994640D01*
X304534Y993583D01*
X298796Y987845D01*
X297526D01*
X285823Y999548D01*
Y1043863D01*
X286434Y1044116D01*
X288822Y1045948D01*
X290654Y1048336D01*
X291806Y1051116D01*
X292199Y1054100D01*
Y1061720D01*
X291806Y1064704D01*
X290654Y1067485D01*
X288822Y1069872D01*
X286434Y1071704D01*
X286010Y1071880D01*
X286262Y1073150D01*
X287020D01*
Y1082040D01*
X261620D01*
Y1073150D01*
X262378D01*
X262630Y1071880D01*
X262206Y1071704D01*
X259818Y1069872D01*
X257986Y1067485D01*
X256834Y1064704D01*
X256441Y1061720D01*
Y1060109D01*
X256362Y1059960D01*
X255490Y1057087D01*
X255270Y1054851D01*
X254000Y1054914D01*
X254000Y1247512D01*
X254898Y1248410D01*
X1053202Y1248410D01*
X1054100Y1247512D01*
D02*
G37*
%LPC*%
G36*
X875309Y551178D02*
X866498D01*
X866680Y549796D01*
X867704Y547324D01*
X869333Y545202D01*
X871455Y543574D01*
X873926Y542550D01*
X875309Y542368D01*
Y551178D01*
D02*
G37*
G36*
X377190Y822960D02*
X360960D01*
X361174Y820792D01*
X362177Y817485D01*
X363806Y814438D01*
X365997Y811767D01*
X368668Y809576D01*
X371715Y807947D01*
X375022Y806944D01*
X377190Y806730D01*
Y822960D01*
D02*
G37*
G36*
X886659Y551178D02*
X877849D01*
Y542368D01*
X879231Y542550D01*
X881703Y543574D01*
X883825Y545202D01*
X885454Y547324D01*
X886477Y549796D01*
X886659Y551178D01*
D02*
G37*
G36*
X649679Y551182D02*
X640869D01*
X641051Y549799D01*
X642074Y547328D01*
X643703Y545205D01*
X645825Y543577D01*
X648297Y542553D01*
X649679Y542371D01*
Y551182D01*
D02*
G37*
G36*
X395960Y822960D02*
X379730D01*
Y806730D01*
X381898Y806944D01*
X385205Y807947D01*
X388252Y809576D01*
X390923Y811767D01*
X393115Y814438D01*
X394743Y817485D01*
X395746Y820792D01*
X395960Y822960D01*
D02*
G37*
G36*
X377190Y841730D02*
X375022Y841516D01*
X371715Y840513D01*
X368668Y838885D01*
X365997Y836693D01*
X363806Y834022D01*
X362177Y830975D01*
X361174Y827668D01*
X360960Y825500D01*
X377190D01*
Y841730D01*
D02*
G37*
G36*
X379730D02*
Y825500D01*
X395960D01*
X395746Y827668D01*
X394743Y830975D01*
X393115Y834022D01*
X390923Y836693D01*
X388252Y838885D01*
X385205Y840513D01*
X381898Y841516D01*
X379730Y841730D01*
D02*
G37*
G36*
X1004000Y527350D02*
X999666Y527009D01*
X995438Y525994D01*
X991422Y524330D01*
X987715Y522058D01*
X984409Y519235D01*
X981586Y515929D01*
X979314Y512222D01*
X977651Y508206D01*
X976636Y503979D01*
X976294Y499644D01*
X976636Y495310D01*
X977651Y491083D01*
X979314Y487066D01*
X981586Y483360D01*
X984409Y480054D01*
X987715Y477230D01*
X991422Y474959D01*
X995438Y473295D01*
X999666Y472280D01*
X1004000Y471939D01*
X1008334Y472280D01*
X1012561Y473295D01*
X1016578Y474959D01*
X1020285Y477230D01*
X1023590Y480054D01*
X1026414Y483360D01*
X1028686Y487066D01*
X1030349Y491083D01*
X1031364Y495310D01*
X1031705Y499644D01*
X1031364Y503979D01*
X1030349Y508206D01*
X1028686Y512222D01*
X1026414Y515929D01*
X1023590Y519235D01*
X1020285Y522058D01*
X1016578Y524330D01*
X1012561Y525994D01*
X1008334Y527009D01*
X1004000Y527350D01*
D02*
G37*
G36*
X304000D02*
X299666Y527009D01*
X295438Y525994D01*
X291422Y524330D01*
X287715Y522058D01*
X284409Y519235D01*
X281586Y515929D01*
X279314Y512222D01*
X277651Y508206D01*
X276636Y503979D01*
X276294Y499644D01*
X276636Y495310D01*
X277651Y491083D01*
X279314Y487066D01*
X281586Y483360D01*
X284409Y480054D01*
X287715Y477230D01*
X291422Y474959D01*
X295438Y473295D01*
X299666Y472280D01*
X304000Y471939D01*
X308334Y472280D01*
X312561Y473295D01*
X316578Y474959D01*
X320285Y477230D01*
X323591Y480054D01*
X326414Y483360D01*
X328685Y487066D01*
X330349Y491083D01*
X331364Y495310D01*
X331705Y499644D01*
X331364Y503979D01*
X330349Y508206D01*
X328685Y512222D01*
X326414Y515929D01*
X323591Y519235D01*
X320285Y522058D01*
X316578Y524330D01*
X312561Y525994D01*
X308334Y527009D01*
X304000Y527350D01*
D02*
G37*
G36*
X661030Y551182D02*
X652219D01*
Y542371D01*
X653602Y542553D01*
X656073Y543577D01*
X658195Y545205D01*
X659824Y547328D01*
X660848Y549799D01*
X661030Y551182D01*
D02*
G37*
G36*
X434340Y649130D02*
X425450D01*
Y637700D01*
X434340D01*
Y649130D01*
D02*
G37*
G36*
X989330Y570400D02*
X977900D01*
Y561510D01*
X989330D01*
Y570400D01*
D02*
G37*
G36*
X434340Y635160D02*
X425450D01*
Y623730D01*
X434340D01*
Y635160D01*
D02*
G37*
G36*
X697230D02*
X688340D01*
Y623730D01*
X697230D01*
Y635160D01*
D02*
G37*
G36*
X975360Y570400D02*
X963930D01*
Y561510D01*
X975360D01*
Y570400D01*
D02*
G37*
G36*
X912848Y562529D02*
Y553718D01*
X921658D01*
X921477Y555101D01*
X920453Y557572D01*
X918824Y559695D01*
X916702Y561323D01*
X914230Y562347D01*
X912848Y562529D01*
D02*
G37*
G36*
X875309D02*
X873926Y562347D01*
X871455Y561323D01*
X869333Y559695D01*
X867704Y557572D01*
X866680Y555101D01*
X866498Y553718D01*
X875309D01*
Y562529D01*
D02*
G37*
G36*
X652219Y562532D02*
Y553722D01*
X661030D01*
X660848Y555104D01*
X659824Y557575D01*
X658195Y559698D01*
X656073Y561326D01*
X653602Y562350D01*
X652219Y562532D01*
D02*
G37*
G36*
X649679D02*
X648297Y562350D01*
X645825Y561326D01*
X643703Y559698D01*
X642074Y557575D01*
X641051Y555104D01*
X640869Y553722D01*
X649679D01*
Y562532D01*
D02*
G37*
G36*
X401881Y1139190D02*
X393070D01*
X393252Y1137808D01*
X394276Y1135336D01*
X395905Y1133214D01*
X398027Y1131585D01*
X400499Y1130562D01*
X401881Y1130379D01*
Y1139190D01*
D02*
G37*
G36*
X661647D02*
X652836D01*
X653018Y1137808D01*
X654042Y1135336D01*
X655670Y1133214D01*
X657793Y1131585D01*
X660264Y1130562D01*
X661647Y1130379D01*
Y1139190D01*
D02*
G37*
G36*
X672997D02*
X664187D01*
Y1130379D01*
X665569Y1130562D01*
X668041Y1131585D01*
X670163Y1133214D01*
X671792Y1135336D01*
X672815Y1137808D01*
X672997Y1139190D01*
D02*
G37*
G36*
X287020Y1093470D02*
X275590D01*
Y1084580D01*
X287020D01*
Y1093470D01*
D02*
G37*
G36*
X975360Y1136640D02*
X963930D01*
Y1127750D01*
X975360D01*
Y1136640D01*
D02*
G37*
G36*
X989330D02*
X977900D01*
Y1127750D01*
X989330D01*
Y1136640D01*
D02*
G37*
G36*
X664187Y1150540D02*
Y1141730D01*
X672997D01*
X672815Y1143112D01*
X671792Y1145584D01*
X670163Y1147706D01*
X668041Y1149335D01*
X665569Y1150359D01*
X664187Y1150540D01*
D02*
G37*
G36*
X304000Y1227350D02*
X299666Y1227009D01*
X295438Y1225994D01*
X291422Y1224330D01*
X287715Y1222058D01*
X284409Y1219235D01*
X281586Y1215929D01*
X279314Y1212222D01*
X277651Y1208206D01*
X276636Y1203979D01*
X276294Y1199644D01*
X276636Y1195310D01*
X277651Y1191083D01*
X279314Y1187066D01*
X281586Y1183360D01*
X284409Y1180054D01*
X287715Y1177230D01*
X291422Y1174959D01*
X295438Y1173295D01*
X299666Y1172280D01*
X304000Y1171939D01*
X308334Y1172280D01*
X312561Y1173295D01*
X316578Y1174959D01*
X320285Y1177230D01*
X323591Y1180054D01*
X326414Y1183360D01*
X328685Y1187066D01*
X330349Y1191083D01*
X331364Y1195310D01*
X331705Y1199644D01*
X331364Y1203979D01*
X330349Y1208206D01*
X328685Y1212222D01*
X326414Y1215929D01*
X323591Y1219235D01*
X320285Y1222058D01*
X316578Y1224330D01*
X312561Y1225994D01*
X308334Y1227009D01*
X304000Y1227350D01*
D02*
G37*
G36*
X1004000D02*
X999666Y1227009D01*
X995438Y1225994D01*
X991422Y1224330D01*
X987715Y1222058D01*
X984409Y1219235D01*
X981586Y1215929D01*
X979314Y1212222D01*
X977651Y1208206D01*
X976636Y1203979D01*
X976294Y1199644D01*
X976636Y1195310D01*
X977651Y1191083D01*
X979314Y1187066D01*
X981586Y1183360D01*
X984409Y1180054D01*
X987715Y1177230D01*
X991422Y1174959D01*
X995438Y1173295D01*
X999666Y1172280D01*
X1004000Y1171939D01*
X1008334Y1172280D01*
X1012561Y1173295D01*
X1016578Y1174959D01*
X1020285Y1177230D01*
X1023590Y1180054D01*
X1026414Y1183360D01*
X1028686Y1187066D01*
X1030349Y1191083D01*
X1031364Y1195310D01*
X1031705Y1199644D01*
X1031364Y1203979D01*
X1030349Y1208206D01*
X1028686Y1212222D01*
X1026414Y1215929D01*
X1023590Y1219235D01*
X1020285Y1222058D01*
X1016578Y1224330D01*
X1012561Y1225994D01*
X1008334Y1227009D01*
X1004000Y1227350D01*
D02*
G37*
G36*
X401881Y1150540D02*
X400499Y1150359D01*
X398027Y1149335D01*
X395905Y1147706D01*
X394276Y1145584D01*
X393252Y1143112D01*
X393070Y1141730D01*
X401881D01*
Y1150540D01*
D02*
G37*
G36*
X404421D02*
Y1141730D01*
X413231D01*
X413049Y1143112D01*
X412026Y1145584D01*
X410397Y1147706D01*
X408275Y1149335D01*
X405803Y1150359D01*
X404421Y1150540D01*
D02*
G37*
G36*
X661647D02*
X660264Y1150359D01*
X657793Y1149335D01*
X655670Y1147706D01*
X654042Y1145584D01*
X653018Y1143112D01*
X652836Y1141730D01*
X661647D01*
Y1150540D01*
D02*
G37*
G36*
X379730Y892530D02*
Y876300D01*
X395960D01*
X395746Y878468D01*
X394743Y881775D01*
X393115Y884822D01*
X390923Y887493D01*
X388252Y889685D01*
X385205Y891313D01*
X381898Y892316D01*
X379730Y892530D01*
D02*
G37*
G36*
X353060Y968935D02*
X349606Y968595D01*
X346284Y967588D01*
X343223Y965951D01*
X340541Y963749D01*
X338339Y961067D01*
X336702Y958006D01*
X335695Y954684D01*
X335355Y951230D01*
X335695Y947776D01*
X336702Y944454D01*
X338339Y941394D01*
X340541Y938710D01*
X343223Y936509D01*
X346284Y934873D01*
X349606Y933865D01*
X353060Y933525D01*
X356514Y933865D01*
X359836Y934873D01*
X359902Y934908D01*
X360946Y934185D01*
X360833Y933330D01*
Y927100D01*
X377190D01*
Y943457D01*
X370960D01*
X370105Y943344D01*
X369382Y944388D01*
X369417Y944454D01*
X370425Y947776D01*
X370765Y951230D01*
X370425Y954684D01*
X369417Y958006D01*
X367781Y961067D01*
X365579Y963749D01*
X362896Y965951D01*
X359836Y967588D01*
X356514Y968595D01*
X353060Y968935D01*
D02*
G37*
G36*
X299920Y1003300D02*
X291110D01*
X291292Y1001918D01*
X292315Y999446D01*
X293944Y997324D01*
X296066Y995695D01*
X298538Y994671D01*
X299920Y994490D01*
Y1003300D01*
D02*
G37*
G36*
X377190Y873760D02*
X360960D01*
X361174Y871592D01*
X362177Y868285D01*
X363806Y865238D01*
X365997Y862567D01*
X368668Y860376D01*
X371715Y858747D01*
X375022Y857744D01*
X377190Y857530D01*
Y873760D01*
D02*
G37*
G36*
X395960D02*
X379730D01*
Y857530D01*
X381898Y857744D01*
X385205Y858747D01*
X388252Y860376D01*
X390923Y862567D01*
X393115Y865238D01*
X394743Y868285D01*
X395746Y871592D01*
X395960Y873760D01*
D02*
G37*
G36*
X377190Y892530D02*
X375022Y892316D01*
X371715Y891313D01*
X368668Y889685D01*
X365997Y887493D01*
X363806Y884822D01*
X362177Y881775D01*
X361174Y878468D01*
X360960Y876300D01*
X377190D01*
Y892530D01*
D02*
G37*
G36*
X623570Y1075530D02*
X614680D01*
Y1064100D01*
X623570D01*
Y1075530D01*
D02*
G37*
G36*
X886460D02*
X877570D01*
Y1064100D01*
X886460D01*
Y1075530D01*
D02*
G37*
G36*
X273050Y1093470D02*
X261620D01*
Y1084580D01*
X273050D01*
Y1093470D01*
D02*
G37*
G36*
X336270Y1003300D02*
X327460D01*
Y994490D01*
X328842Y994671D01*
X331314Y995695D01*
X333436Y997324D01*
X335065Y999446D01*
X336088Y1001918D01*
X336270Y1003300D01*
D02*
G37*
G36*
X299920Y1014650D02*
X298538Y1014469D01*
X296066Y1013445D01*
X293944Y1011816D01*
X292315Y1009694D01*
X291292Y1007222D01*
X291110Y1005840D01*
X299920D01*
Y1014650D01*
D02*
G37*
G36*
X623570Y1061560D02*
X614680D01*
Y1050130D01*
X623570D01*
Y1061560D01*
D02*
G37*
%LPD*%
D10*
X436880Y1035396D02*
Y1061720D01*
Y1035396D02*
X457706Y1014570D01*
X436880Y1139190D02*
X438150Y1140460D01*
X436880Y1061720D02*
Y1139190D01*
X450850Y1165860D02*
X462280Y1154430D01*
Y1062190D02*
Y1154430D01*
X874870Y889160D02*
X877570Y886460D01*
X826770Y889160D02*
X874870D01*
X826770D02*
Y932180D01*
X613250Y889160D02*
X691896Y810514D01*
X562450Y889160D02*
X613250D01*
X557530Y894080D02*
X562450Y889160D01*
X411140Y903440D02*
Y948621D01*
X382730Y875030D02*
X411140Y903440D01*
Y948621D02*
X454229Y991710D01*
X561340Y866140D02*
Y890270D01*
X505714Y810514D02*
X561340Y866140D01*
X486410Y810514D02*
X505714D01*
X748030D02*
X766064D01*
X824230Y868680D02*
Y885444D01*
X766064Y810514D02*
X824230Y868680D01*
X715010Y1167130D02*
X723900Y1158240D01*
X676910Y1167130D02*
X715010D01*
X662917Y1153137D02*
X676910Y1167130D01*
X662917Y1126467D02*
Y1140460D01*
X614680Y1078230D02*
X662917Y1126467D01*
X614680Y1061720D02*
Y1078230D01*
X658710Y1061720D02*
X698500D01*
X487680Y1185070D02*
X487680Y1061720D01*
X513080Y1185070D02*
X513080Y1061720D01*
X428551Y1165860D02*
X450850D01*
X403151Y1140460D02*
X428551Y1165860D01*
X723900Y1050019D02*
Y1158240D01*
X698500Y1061720D02*
Y1139876D01*
X697916Y1140460D02*
X698500Y1139876D01*
X662917Y1140460D02*
Y1153137D01*
X698500Y613410D02*
Y636430D01*
X650949Y565859D02*
X698500Y613410D01*
X650949Y552452D02*
Y565859D01*
Y532691D02*
Y552452D01*
X614680Y553722D02*
Y631190D01*
Y553722D02*
X615950Y552452D01*
X589280Y651510D02*
X605790Y668020D01*
X851171Y1024890D02*
X876300Y1050019D01*
X749300Y1121474D02*
X749300Y1060450D01*
X800100Y1121474D02*
X800100Y1060450D01*
X749300Y1121474D02*
X749300Y1188720D01*
X800100Y1121474D02*
X800100Y1188720D01*
X535940Y927408D02*
X543289Y934758D01*
X535940Y904007D02*
Y927408D01*
Y904007D02*
X545867Y894080D01*
X538517Y934758D02*
X563843D01*
X563880Y934720D01*
X545867Y894080D02*
X557530D01*
Y894080D02*
Y894080D01*
X487680Y758190D02*
X513080D01*
X825500Y1121474D02*
X825500Y1188720D01*
X825500Y1121474D02*
X825500Y1060450D01*
X774700Y1121474D02*
X774700Y1188720D01*
X774700Y1121474D02*
X774700Y1060450D01*
X563880Y1183480D02*
X563880Y1061720D01*
X538480Y1185070D02*
X538480Y1061720D01*
X486410Y764540D02*
Y810514D01*
X748030Y759460D02*
Y810514D01*
X800100Y933450D02*
X825500D01*
X826770Y932180D01*
X691896Y810514D02*
X748030D01*
X415544D02*
X486410D01*
X378460Y773430D02*
X415544Y810514D01*
X378460Y824230D02*
Y875030D01*
X613681Y1049020D02*
X614680Y1050019D01*
X612140Y1049020D02*
X613681D01*
X612140Y1047479D02*
Y1049020D01*
X655479Y1026160D02*
X704850D01*
X723900Y1045210D01*
X744220Y1024890D01*
X851171D01*
X378460Y925830D02*
X381000Y928370D01*
Y1026160D02*
X416560Y1061720D01*
X436880D01*
X326190Y1004570D02*
X379730D01*
X381000Y1005840D01*
Y928370D02*
Y1005840D01*
Y1026160D01*
X347780Y636270D02*
X436880D01*
X605790Y668020D02*
X656469D01*
X683139Y641350D01*
X300990Y695960D02*
Y740865D01*
X301190Y695960D02*
X302260Y694890D01*
Y681790D02*
Y694890D01*
Y681790D02*
X347780Y636270D01*
X436880Y503461D02*
Y631190D01*
X278130Y629882D02*
Y750334D01*
X615950Y472402D02*
Y535361D01*
Y552452D01*
X300990Y740865D02*
X378460Y818335D01*
Y824230D01*
X278130Y750334D02*
X332740Y804944D01*
Y880110D01*
X378460Y925830D01*
X876579Y503740D02*
Y552448D01*
X850900Y578127D02*
X876579Y552448D01*
X850900Y578127D02*
Y631190D01*
X876300Y587726D02*
X911578Y552448D01*
X876300Y587726D02*
Y631190D01*
X911578Y506410D02*
Y552448D01*
X301190Y1004570D02*
Y1012390D01*
X403151Y1114351D01*
Y1140460D01*
X326190Y983850D02*
Y1004570D01*
X295910Y967804D02*
X310144D01*
X326190Y983850D01*
X270510Y993204D02*
X295910Y967804D01*
X461010Y1047880D02*
Y1062190D01*
X378460Y875030D02*
X382730D01*
X588010Y498889D02*
Y636430D01*
X589280D02*
Y646430D01*
X486410Y515780D02*
Y636430D01*
X511810Y515780D02*
Y636430D01*
X537210Y515780D02*
Y636430D01*
X562610Y515780D02*
Y636430D01*
X748030Y759460D02*
X753270Y764700D01*
X768190D01*
X774700Y758190D01*
X683139Y641350D02*
X693580D01*
X698500Y636430D01*
X436880Y503461D02*
X457581Y482760D01*
X571881D01*
X588010Y498889D01*
X278130Y629882D02*
X448112Y459900D01*
X603448D01*
X615950Y472402D01*
X650949Y532691D02*
X700880Y482760D01*
X855599D01*
X876579Y503740D01*
X691411Y459900D02*
X865068D01*
X615950Y535361D02*
X691411Y459900D01*
X865068D02*
X911578Y506410D01*
X749300Y515780D02*
Y636430D01*
X749300Y636430D01*
X774700D02*
X777240Y633890D01*
X774700Y631350D02*
X777240Y633890D01*
X774700Y515780D02*
Y631350D01*
X800100Y515780D02*
Y636430D01*
X800100Y636430D01*
X825500Y515780D02*
Y636430D01*
X825500Y636430D01*
X602091Y1037430D02*
X612140Y1047479D01*
X621029Y991710D02*
X655479Y1026160D01*
X611560Y1014570D02*
X658710Y1061720D01*
X471460Y1037430D02*
X602091D01*
X457706Y1014570D02*
X611560D01*
X454229Y991710D02*
X621029D01*
X461010Y1047880D02*
X471460Y1037430D01*
X331470Y1140460D02*
X403151D01*
X270510Y993204D02*
Y1054100D01*
X274320Y1057910D01*
Y1083310D02*
X331470Y1140460D01*
D11*
X840580Y1215550D02*
X850900Y1205230D01*
X656479Y1215550D02*
X840580D01*
X589280Y1148351D02*
X656479Y1215550D01*
X874870Y1230790D02*
X979170Y1126490D01*
X442120Y1230790D02*
X874870D01*
X403151Y1191821D02*
X442120Y1230790D01*
X875030Y807720D02*
X877570Y810260D01*
X875030Y796450D02*
Y807720D01*
X849630D02*
X852170Y810260D01*
X849630Y793750D02*
Y807720D01*
X612140Y806450D02*
X615950Y810260D01*
X612140Y796290D02*
Y806450D01*
X586740Y806450D02*
X590550Y810260D01*
X586740Y796290D02*
Y806450D01*
X969391Y908939D02*
X976630Y901700D01*
X863981Y908939D02*
X969391D01*
X850900Y922020D02*
X863981Y908939D01*
X436880Y885190D02*
Y895350D01*
X462280Y920750D01*
X463550Y899160D02*
X487680Y923290D01*
X463550Y887730D02*
Y899160D01*
X487680Y923290D02*
Y934720D01*
X461010Y885190D02*
X463550Y887730D01*
X486410Y886714D02*
Y891540D01*
X513080Y918210D01*
X699770Y899160D02*
X723900Y923290D01*
X699770Y887730D02*
Y899160D01*
X697230Y885190D02*
X699770Y887730D01*
X725170Y899069D02*
X749300Y923198D01*
X725170Y895350D02*
Y899069D01*
Y895350D02*
X727075Y893445D01*
X748030Y886714D02*
X748538Y887222D01*
Y888238D01*
X774700Y914400D01*
X850900Y772320D02*
X875030Y796450D01*
X840900Y785020D02*
X849630Y793750D01*
X825500Y758190D02*
Y769743D01*
X840777Y785020D01*
X840900D01*
X850900Y758190D02*
Y772320D01*
X589280Y773430D02*
X612140Y796290D01*
X563880Y773430D02*
X586740Y796290D01*
X635232Y957420D02*
X668412Y990600D01*
X596740Y957420D02*
X635232D01*
X716477Y960120D02*
X984250D01*
X698500Y942143D02*
X716477Y960120D01*
X698500Y934720D02*
Y942143D01*
X984250Y960120D02*
X1010920Y933450D01*
X403151Y1140460D02*
Y1191821D01*
X984250Y820420D02*
X986155Y818515D01*
X986155D01*
X589280Y1061720D02*
Y1148351D01*
X462280Y732790D02*
Y758190D01*
X887730Y769620D02*
X984250D01*
X434340Y755650D02*
X436880Y758190D01*
X434340Y725170D02*
Y755650D01*
X876300Y758190D02*
X887730Y769620D01*
X850900Y922020D02*
Y934720D01*
X436880D02*
Y947420D01*
X749300Y923198D02*
Y933450D01*
X513080Y918210D02*
Y934720D01*
X800100Y783590D02*
X826262Y809752D01*
X800100Y758190D02*
Y783590D01*
X589280Y763270D02*
Y773430D01*
X563880Y763270D02*
Y773430D01*
X538480Y763270D02*
Y783590D01*
X562737Y807847D01*
X774700Y914400D02*
Y933450D01*
X723900Y923290D02*
Y933450D01*
X462280Y920750D02*
Y934720D01*
X589280D02*
Y949960D01*
X674725Y975360D02*
X871687D01*
X614680Y934720D02*
X634085D01*
X674725Y975360D01*
X668412Y990600D02*
X865374D01*
X662099Y1005840D02*
X859061D01*
X462280Y631190D02*
Y652126D01*
X709930Y660400D02*
X723900Y646430D01*
Y631190D02*
Y646430D01*
X737870Y660400D01*
X723900Y740410D02*
Y763430D01*
Y740410D02*
X727710Y736600D01*
X933450D01*
X698500Y739140D02*
Y763430D01*
Y739140D02*
X716280Y721360D01*
X939763D01*
X657897Y758190D02*
X709967Y706120D01*
X670672Y702310D02*
X697342Y675640D01*
X664360Y687070D02*
X691030Y660400D01*
X709930D01*
X614680Y758190D02*
X657897D01*
X976630Y712470D02*
X1005840Y712470D01*
X325990Y695960D02*
X349250D01*
X378460Y725170D01*
Y773430D01*
X709967Y706120D02*
X914400D01*
X958848Y661671D01*
X976630Y661670D01*
X850900Y1061720D02*
Y1205230D01*
X676985Y717550D02*
X703655Y690880D01*
X462280Y652126D02*
X497224Y687070D01*
X664360D01*
X462280Y732790D02*
X477520Y717550D01*
X676985D01*
X457200Y702310D02*
X670672D01*
X434340Y725170D02*
X457200Y702310D01*
X1005840Y712470D02*
X1018540Y699770D01*
Y744410D02*
Y798830D01*
X1003300Y750723D02*
Y789940D01*
X628919Y972660D02*
X662099Y1005840D01*
X589280Y949960D02*
X596740Y957420D01*
X436880Y947420D02*
X462120Y972660D01*
X628919D01*
X992141Y1055530D02*
X1003300Y1044371D01*
Y1041671D02*
Y1044371D01*
Y1041671D02*
X1003300Y1041671D01*
X923991Y1070770D02*
X998453D01*
X930304Y1055530D02*
X992141D01*
X865374Y990600D02*
X930304Y1055530D01*
X859061Y1005840D02*
X923991Y1070770D01*
X871687Y975360D02*
X932647Y1036320D01*
X984250D01*
X998453Y1070770D02*
X1018540Y1050683D01*
X976630Y791210D02*
X980057Y794755D01*
X998177Y795062D01*
X1003300Y789940D01*
X986155Y818515D02*
X988060Y820420D01*
X996950D01*
X1018540Y798830D01*
X939763Y721360D02*
X952463Y734060D01*
X1008190D01*
X1018540Y744410D01*
X946150Y749300D02*
X1001878D01*
X1003300Y750723D01*
X933450Y736600D02*
X946150Y749300D01*
X976630Y687070D02*
X996950D01*
X1003300Y680720D01*
X976630Y876300D02*
X999490D01*
X1010920Y887730D01*
Y933450D01*
X876300Y934720D02*
X880110Y930910D01*
X974196D01*
X976630Y928477D01*
Y984250D02*
X999490D01*
X1018540Y1003300D01*
Y1050683D01*
X984250Y1013460D02*
X994410D01*
X1003300Y1022350D01*
Y1041671D01*
X979170Y1126490D02*
X1009650D01*
X1049020Y1087120D01*
X850900Y1076960D02*
X873760Y1099820D01*
X1010920D01*
X1033780Y1076960D01*
X956730Y596900D02*
X969430D01*
X973115Y600585D01*
X954115Y642620D02*
X994410D01*
X1003300Y651510D01*
Y680720D01*
X947803Y627380D02*
X1006073D01*
X1018540Y639847D01*
Y699770D01*
X1012360Y571670D02*
X1049020Y608330D01*
Y1087120D01*
X976630Y597070D02*
X1016207D01*
X1033780Y614643D01*
Y1076960D01*
X976630Y571670D02*
X1012360Y571670D01*
X697342Y675640D02*
X899543D01*
X737870Y660400D02*
X893230D01*
X956730Y596900D01*
X703655Y690880D02*
X905855D01*
X954115Y642620D01*
X899543Y675640D02*
X947803Y627380D01*
D12*
X253999Y1249644D02*
X254000Y1249644D01*
X253999Y449644D02*
Y1249644D01*
Y449644D02*
X1054000D01*
Y1249644D01*
X254000D02*
X1054000D01*
D13*
X976630Y769673D02*
D03*
Y795073D02*
D03*
Y820473D02*
D03*
Y661670D02*
D03*
Y687070D02*
D03*
Y712470D02*
D03*
Y985680D02*
D03*
Y1011080D02*
D03*
Y1036480D02*
D03*
Y928477D02*
D03*
Y903077D02*
D03*
Y877677D02*
D03*
D14*
X749300Y515780D02*
D03*
X825500D02*
D03*
X800100D02*
D03*
X774700D02*
D03*
X486410D02*
D03*
X562610D02*
D03*
X537210D02*
D03*
X511810D02*
D03*
X800100Y1121474D02*
D03*
X774700D02*
D03*
X749300D02*
D03*
X825500D02*
D03*
X800100Y1183480D02*
D03*
X774700D02*
D03*
X749300D02*
D03*
X825500D02*
D03*
X563880D02*
D03*
X487680D02*
D03*
X513080D02*
D03*
X538480D02*
D03*
D15*
X976630Y597070D02*
D03*
Y1101080D02*
D03*
X274320Y1057910D02*
D03*
D16*
X976630Y571670D02*
D03*
Y1126480D02*
D03*
X274320Y1083310D02*
D03*
D17*
X326190Y695960D02*
D03*
X301190D02*
D03*
X326190Y1004570D02*
D03*
X301190D02*
D03*
X403151Y1140460D02*
D03*
X438150D02*
D03*
X662917D02*
D03*
X697916D02*
D03*
X650949Y552452D02*
D03*
X615950D02*
D03*
X876579Y552448D02*
D03*
X911578D02*
D03*
D18*
X435610Y636430D02*
D03*
X698500D02*
D03*
X613410Y1062830D02*
D03*
X876300D02*
D03*
D19*
X461010Y636430D02*
D03*
X486410D02*
D03*
X511810D02*
D03*
X613410D02*
D03*
X588010D02*
D03*
X562610D02*
D03*
X537210D02*
D03*
Y763430D02*
D03*
X562610D02*
D03*
X588010D02*
D03*
X613410D02*
D03*
X511810D02*
D03*
X486410D02*
D03*
X461010D02*
D03*
X435610D02*
D03*
X723900Y636430D02*
D03*
X749300D02*
D03*
X774700D02*
D03*
X876300D02*
D03*
X850900D02*
D03*
X825500D02*
D03*
X800100D02*
D03*
Y763430D02*
D03*
X825500D02*
D03*
X850900D02*
D03*
X876300D02*
D03*
X774700D02*
D03*
X749300D02*
D03*
X723900D02*
D03*
X698500D02*
D03*
X588010Y1062830D02*
D03*
X562610D02*
D03*
X537210D02*
D03*
X435610D02*
D03*
X461010D02*
D03*
X486410D02*
D03*
X511810D02*
D03*
Y935830D02*
D03*
X486410D02*
D03*
X461010D02*
D03*
X435610D02*
D03*
X537210D02*
D03*
X562610D02*
D03*
X588010D02*
D03*
X613410D02*
D03*
X850900Y1062830D02*
D03*
X825500D02*
D03*
X800100D02*
D03*
X698500D02*
D03*
X723900D02*
D03*
X749300D02*
D03*
X774700D02*
D03*
Y935830D02*
D03*
X749300D02*
D03*
X723900D02*
D03*
X698500D02*
D03*
X800100D02*
D03*
X825500D02*
D03*
X850900D02*
D03*
X876300D02*
D03*
D20*
X378460Y925830D02*
D03*
D21*
Y875030D02*
D03*
Y824230D02*
D03*
Y773430D02*
D03*
D22*
X436880Y887730D02*
D03*
X462280D02*
D03*
X487680D02*
D03*
Y811530D02*
D03*
X462280D02*
D03*
X612140Y811784D02*
D03*
X586740D02*
D03*
X561340D02*
D03*
Y887984D02*
D03*
X586740D02*
D03*
X699770Y887730D02*
D03*
X725170D02*
D03*
X750570D02*
D03*
Y811530D02*
D03*
X725170D02*
D03*
X875030Y811784D02*
D03*
X849630D02*
D03*
X824230D02*
D03*
Y887984D02*
D03*
X849630D02*
D03*
D23*
X436880Y811530D02*
D03*
X612140Y887984D02*
D03*
X699770Y811530D02*
D03*
X875030Y887984D02*
D03*
M02*
